<?xml version="1.0" encoding="UTF-8"?>
<svg version="1.1" xmlns="http://www.w3.org/2000/svg" width="364" height="92">
<path d="M0 0 C120.12 0 240.24 0 364 0 C364 30.36 364 60.72 364 92 C243.88 92 123.76 92 0 92 C0 61.64 0 31.28 0 0 Z " fill="#FFFFFF" transform="translate(0,0)"/>
<path d="M0 0 C120.12 0 240.24 0 364 0 C364 30.36 364 60.72 364 92 C243.88 92 123.76 92 0 92 C0 61.64 0 31.28 0 0 Z M4 4 C4 30.4 4 56.8 4 84 C120.16 84 236.32 84 356 84 C356 57.6 356 31.2 356 4 C239.84 4 123.68 4 4 4 Z " fill="#000000" transform="translate(0,0)"/>
</svg>
